<?xml version="1.0" encoding="utf-8"?>
<!-- Generator: Adobe Illustrator 18.0.0, SVG Export Plug-In . SVG Version: 6.00 Build 0)  -->
<!DOCTYPE svg PUBLIC "-//W3C//DTD SVG 1.1//EN" "http://www.w3.org/Graphics/SVG/1.1/DTD/svg11.dtd">
<svg version="1.1" id="Layer_1" xmlns="http://www.w3.org/2000/svg" xmlns:xlink="http://www.w3.org/1999/xlink" x="0px" y="0px"
	 viewBox="0 0 834.1 841.9" enable-background="new 0 0 834.1 841.9" xml:space="preserve">
<path fill="#41A749" d="M360.9,562.1c-32.2-2.6-61.8,11.7-79.7,35.9c-10.6,12.4-22.6,30.3-24.7,33.6c-2.5,3.6-4,8.1-4,12.8
	c0,12.5,10.1,22.6,22.6,22.6c9.8,0,16.4-4.5,19.5-13.2c0.4-1.2,1.2-2.9,1.9-4.6l1.7,3.6c1.3,2.7,4,4.4,6.8,4.4c1,0,2.1-0.2,3.1-0.7
	c3.8-1.7,5.4-6.2,3.7-9.9l-10.6-23.1c-0.1-0.2-0.2-0.4-0.3-0.6c11-20.2,33.2-32.8,57.6-30.9c8.3,0.7,15.5-5.5,16.1-13.8
	C375.3,570,369.2,562.8,360.9,562.1z"/>
<path fill="#41A749" d="M574.8,631.6c-2.1-3.3-14.1-21.2-24.7-33.6c-17.9-24.2-47.5-38.5-79.7-35.9c-8.3,0.7-14.4,7.9-13.8,16.1
	c0.7,8.3,7.9,14.4,16.1,13.8c24.5-2,46.6,10.6,57.6,30.9c-0.1,0.2-0.2,0.4-0.3,0.6l-10.6,23.1c-1.7,3.8-0.1,8.2,3.7,9.9
	c1,0.5,2.1,0.7,3.1,0.7c2.8,0,5.6-1.6,6.8-4.4l1.7-3.6c0.7,1.7,1.4,3.4,1.9,4.6c3.1,8.7,9.7,13.2,19.5,13.2
	c12.5,0,22.6-10.1,22.6-22.6C578.8,639.7,577.3,635.3,574.8,631.6z"/>
</svg>
