<?xml version="1.0" encoding="utf-8"?>
<!-- Generator: Adobe Illustrator 18.0.0, SVG Export Plug-In . SVG Version: 6.00 Build 0)  -->
<!DOCTYPE svg PUBLIC "-//W3C//DTD SVG 1.1//EN" "http://www.w3.org/Graphics/SVG/1.1/DTD/svg11.dtd">
<svg version="1.1" id="Layer_1" xmlns="http://www.w3.org/2000/svg" xmlns:xlink="http://www.w3.org/1999/xlink" x="0px" y="0px"
	 viewBox="0 0 612 792" enable-background="new 0 0 612 792" xml:space="preserve">
<path fill="#B042BC" d="M264.8,499.6c-23.6-1.9-45.3,8.6-58.5,26.3c-7.8,9.1-16.6,22.2-18.1,24.7c-1.8,2.6-2.9,5.9-2.9,9.4
	c0,9.2,7.4,16.6,16.6,16.6c7.2,0,12-3.3,14.3-9.7c0.3-0.9,0.9-2.1,1.4-3.4l1.2,2.6c1,2,2.9,3.2,5,3.2c0.7,0,1.5-0.1,2.3-0.5
	c2.8-1.2,4-4.5,2.7-7.3l-7.8-16.9c-0.1-0.1-0.1-0.3-0.2-0.4c8.1-14.8,24.4-24.1,42.3-22.7c6.1,0.5,11.4-4,11.8-10.1
	C275.4,505.4,270.9,500.1,264.8,499.6z"/>
<path fill="#B042BC" d="M421.7,550.6c-1.5-2.4-10.3-15.6-18.1-24.7c-13.1-17.8-34.9-28.2-58.5-26.3c-6.1,0.5-10.6,5.8-10.1,11.8
	c0.5,6.1,5.8,10.6,11.8,10.1c18-1.5,34.2,7.8,42.3,22.7c-0.1,0.1-0.1,0.3-0.2,0.4l-7.8,16.9c-1.2,2.8-0.1,6,2.7,7.3
	c0.7,0.4,1.5,0.5,2.3,0.5c2.1,0,4.1-1.2,5-3.2l1.2-2.6c0.5,1.2,1,2.5,1.4,3.4c2.3,6.4,7.1,9.7,14.3,9.7c9.2,0,16.6-7.4,16.6-16.6
	C424.7,556.5,423.6,553.3,421.7,550.6z"/>
</svg>
