<?xml version="1.0" encoding="utf-8"?>
<!-- Generator: Adobe Illustrator 18.0.0, SVG Export Plug-In . SVG Version: 6.00 Build 0)  -->
<!DOCTYPE svg PUBLIC "-//W3C//DTD SVG 1.1//EN" "http://www.w3.org/Graphics/SVG/1.1/DTD/svg11.dtd">
<svg version="1.1" id="Layer_1" xmlns="http://www.w3.org/2000/svg" xmlns:xlink="http://www.w3.org/1999/xlink" x="0px" y="0px"
	 viewBox="0 0 612 792" enable-background="new 0 0 612 792" xml:space="preserve">
<g>
	<g>
		<path fill="#231F20" d="M315.7,361.9c-2.8-0.4-5.5,1.5-5.9,4.3c-0.5,3.3-3.8,3.7-4.8,3.7v0.1l0,0v-0.1c-1,0-4.3-0.4-4.8-3.7
			c-0.4-2.8-3.2-4.7-5.9-4.3c-2.8,0.4-4.7,3.2-4.3,5.9c1.6,9.8,10.5,12.3,15,12.3V380c0.1,0,0.1,0,0.1,0l0,0v0.1
			c4.5,0,13.4-2.6,15-12.3C320.5,365.1,318.6,362.4,315.7,361.9z"/>
	</g>
</g>
<line fill="#231F20" stroke="#000102" stroke-width="12" stroke-miterlimit="10" x1="172.9" y1="360.7" x2="286.6" y2="360.7"/>
<line fill="#231F20" stroke="#000102" stroke-width="12" stroke-miterlimit="10" x1="322.9" y1="360.7" x2="436.6" y2="360.7"/>
</svg>
