<?xml version="1.0" encoding="utf-8"?>
<!-- Generator: Adobe Illustrator 18.0.0, SVG Export Plug-In . SVG Version: 6.00 Build 0)  -->
<!DOCTYPE svg PUBLIC "-//W3C//DTD SVG 1.1//EN" "http://www.w3.org/Graphics/SVG/1.1/DTD/svg11.dtd">
<svg version="1.1" id="Layer_1" xmlns="http://www.w3.org/2000/svg" xmlns:xlink="http://www.w3.org/1999/xlink" x="0px" y="0px"
	 viewBox="0 0 612 792" enable-background="new 0 0 612 792" xml:space="preserve">
<g>
	<circle fill="#FFFFFF" cx="380.1" cy="360.7" r="51.7"/>
	<path fill="#231F20" d="M380.1,417.6c-31.3,0-56.9-25.5-56.9-56.9s25.5-56.9,56.9-56.9s56.9,25.5,56.9,56.9
		S411.4,417.6,380.1,417.6z M380.1,314.2c-25.7,0-46.6,20.9-46.6,46.6c0,25.7,20.9,46.6,46.6,46.6c25.7,0,46.6-20.9,46.6-46.6
		C426.7,335.1,405.7,314.2,380.1,314.2z"/>
</g>
<path fill="#231F20" d="M406.6,366.1l-17.1-5.4l17.1-5.4c1.4-0.4,2.1-1.9,1.7-3.3c-3.8-12.2-14.9-20.3-27.6-20.3
	c-15.9,0-28.9,13-28.9,28.9c0,15.9,13,28.9,28.9,28.9c12.8,0,23.8-8.1,27.6-20.3C408.7,368,407.9,366.5,406.6,366.1z"/>
<g>
	<g>
		<path fill="#231F20" d="M315.7,361.9c-2.8-0.4-5.5,1.5-5.9,4.3c-0.5,3.3-3.8,3.7-4.8,3.7v0.1l0,0v-0.1c-1,0-4.3-0.4-4.8-3.7
			c-0.4-2.8-3.2-4.7-5.9-4.3c-2.8,0.4-4.7,3.2-4.3,5.9c1.6,9.8,10.5,12.3,15,12.3V380c0.1,0,0.1,0,0.1,0l0,0v0.1
			c4.5,0,13.4-2.6,15-12.3C320.5,365.1,318.6,362.4,315.7,361.9z"/>
	</g>
</g>
<line fill="#231F20" stroke="#000102" stroke-width="12" stroke-miterlimit="10" x1="172.9" y1="360.7" x2="286.6" y2="360.7"/>
</svg>
