<?xml version="1.0" encoding="utf-8"?>
<!-- Generator: Adobe Illustrator 18.0.0, SVG Export Plug-In . SVG Version: 6.00 Build 0)  -->
<!DOCTYPE svg PUBLIC "-//W3C//DTD SVG 1.1//EN" "http://www.w3.org/Graphics/SVG/1.1/DTD/svg11.dtd">
<svg version="1.1" id="Layer_1" xmlns="http://www.w3.org/2000/svg" xmlns:xlink="http://www.w3.org/1999/xlink" x="0px" y="0px"
	 viewBox="0 0 612 792" enable-background="new 0 0 612 792" xml:space="preserve">
<path fill="#41A749" d="M304.2,531.1c3.5,4.8,11.2,13.1,21.1,9.6c7.1-2.6,10.6-16,10.6-16s8.8,7.2,24.4,3.4
	c15.6-3.8,19.7-18.4,19.7-18.4S376.8,530,394,528c17-2,11.4-33.4,11.3-33.8c2.1,11.2,14.2,22.2,23.1,10.1c6.7-9,4.8-24.1,3.7-34.6
	c0.9,8.2,9.5,22.4,19.2,17.5c12.8-6.2,6.5-30.7,3.3-40.5c4.8,14.9,22.1,5.9,26-4.2c5.6-14.2-4.6-32-11.7-43.9
	c6.4,8.3,20.6,15.7,25,1.5c7.7-25-11.4-48.4-26.9-65.9c6.6,7.9,35.2,33.2,36.5,7.6c1.2-23.6-22.2-40.9-41.3-49.5
	c5.9,2.5,12.1,5,18.5,5.4c16.9,1,14.2-14.3,6-23.3c-8.8-9.7-20.3-17.2-31.9-23c4,3.8,14.4,10.3,20,9.5c9.6-1.4,14.1-19.5,9.5-24.7
	c-13.2-14.7-35.7-9.4-44-5.9l3.4-1c15.3-4.3,17.8-18.9,13.5-30.3c-8.5-22.5-45.9-12.5-67-4.5c7.1-2.7,15.5-2.7,19.2-10.8
	c3.4-7.5-0.9-15.3-7.9-18.7c-17.8-8.5-36.6,7.3-50.4,16.7c4.9-3.9,13.5-9.8,14.7-16.4c2.4-13.2-18-11.4-25.2-9.6
	c-13.6,3.3-25.9,12.3-33.9,23.7H303c-8-11.4-20.3-20.4-33.9-23.7c-7.3-1.8-27.7-3.6-25.2,9.6c1.2,6.6,9.8,12.5,14.7,16.4
	c-13.8-9.3-32.7-25.1-50.4-16.7c-7,3.4-11.3,11.2-7.9,18.7c3.7,8.1,12,8.1,19.2,10.8c-21-8.1-58.5-18-67,4.5
	c-4.3,11.4-1.7,26,13.5,30.3l3.4,1c-8.4-3.5-30.8-8.8-44,5.9c-4.6,5.1-0.1,23.3,9.5,24.7c5.6,0.8,16-5.7,20-9.5
	c-11.7,5.7-23.1,13.3-31.9,23c-8.2,9.1-10.9,24.4,6,23.3c6.4-0.4,12.7-2.9,18.5-5.4c-19.2,8.7-42.5,26-41.3,49.5
	c1.3,25.7,29.9,0.3,36.5-7.6c-15.3,17.5-34.6,40.8-26.9,65.9c4.4,14.2,18.6,6.8,25-1.5c-7,12-17.2,29.7-11.7,43.9
	c4,10.1,21.2,19.1,26,4.2c-3.2,9.8-9.5,34.2,3.3,40.5c9.8,4.8,18.4-9.3,19.2-17.5c-1.1,10.4-3,25.5,3.7,34.6
	c8.9,12,21.1,1.1,23.1-10.1c-0.1,0.4-5.7,31.8,11.3,33.8c17.1,2,14.1-18.3,14.1-18.3s4,14.6,19.7,18.4s24.4-3.4,24.4-3.4
	s3.4,13.5,10.6,16c9.8,3.5,17.4-4.5,21-9.5"/>
</svg>
