<?xml version="1.0" encoding="utf-8"?>
<!-- Generator: Adobe Illustrator 18.0.0, SVG Export Plug-In . SVG Version: 6.00 Build 0)  -->
<!DOCTYPE svg PUBLIC "-//W3C//DTD SVG 1.1//EN" "http://www.w3.org/Graphics/SVG/1.1/DTD/svg11.dtd">
<svg version="1.1" id="Layer_1" xmlns="http://www.w3.org/2000/svg" xmlns:xlink="http://www.w3.org/1999/xlink" x="0px" y="0px"
	 viewBox="0 0 834.1 841.9" enable-background="new 0 0 834.1 841.9" xml:space="preserve">
<path fill="#BD4142" d="M382.3,631c-8.1-1.9-16.2,3-18.1,11.1l-19,78.5c-0.2,1-0.4,2.1-0.4,3.1l-24.9,23.8c-1,1-1.4,2.5-0.8,3.8
	s1.8,2.2,3.2,2.2h48.3c1.8,0,3.3-1.4,3.5-3.2l3.1-34.2c0-0.1,0-0.2,0-0.2l16.1-66.8C395.3,641,390.4,632.9,382.3,631z"/>
<path fill="#BD4142" d="M511.1,747.2l-24.7-23.6c0-1-0.2-2.1-0.4-3.1L467,642c-1.9-8.1-10.1-13-18.1-11.1c-8.1,1.9-13,10-11.1,18.1
	l16.1,66.8c0,0.1,0,0.2,0,0.2l3.1,34.2c0.2,1.8,1.7,3.2,3.5,3.2h48.3c0,0,0,0,0,0c1.9,0,3.5-1.6,3.5-3.5
	C512.4,748.8,511.9,747.9,511.1,747.2z"/>
</svg>
